<mxfile host="app.diagrams.net" modified="2021-03-21T02:37:53.229Z" agent="5.0 (Windows)" etag="Qgn6Wnc4a4hBTujuimN9" version="14.4.9" type="github">
  <diagram id="V-s7dzLstB1fp2AsWrGF" name="Page-1">
    <mxGraphModel dx="3555" dy="1933" grid="1" gridSize="10" guides="1" tooltips="1" connect="1" arrows="1" fold="1" page="1" pageScale="1" pageWidth="827" pageHeight="1169" math="0" shadow="0">
      <root>
        <mxCell id="0" />
        <mxCell id="1" parent="0" />
        <mxCell id="tdu9kAknkN8920B2DEsd-286" value="&lt;div&gt;&lt;br&gt;&lt;/div&gt;&lt;div&gt;&lt;br&gt;&lt;/div&gt;" style="strokeWidth=1;shadow=0;align=center;html=1;shape=mxgraph.mockup.containers.window;align=left;verticalAlign=top;spacingLeft=8;strokeColor2=#008cff;strokeColor3=#c4c4c4;fontColor=#666666;mainText=;fontSize=17;labelBackgroundColor=none;fillColor=#3D3D3D;gradientDirection=north;sketch=0;" vertex="1" parent="1">
          <mxGeometry x="2040" y="220" width="390" height="890" as="geometry" />
        </mxCell>
        <mxCell id="tdu9kAknkN8920B2DEsd-2" value="" style="strokeWidth=1;shadow=0;dashed=0;align=center;html=1;shape=mxgraph.mockup.containers.browserWindow;rSize=0;strokeColor2=#008cff;strokeColor3=#c4c4c4;mainText=,;recursiveResize=0;fillColor=#4F4F4F;noLabel=0;sketch=0;" vertex="1" parent="1">
          <mxGeometry x="40" y="40" width="1920" height="1080" as="geometry" />
        </mxCell>
        <mxCell id="tdu9kAknkN8920B2DEsd-3" value="&lt;font color=&quot;#FFFFFF&quot;&gt;INICIO&lt;/font&gt;" style="strokeWidth=1;shadow=0;dashed=0;align=center;html=1;shape=mxgraph.mockup.containers.anchor;fontSize=17;fontColor=#666666;align=left;" vertex="1" parent="tdu9kAknkN8920B2DEsd-2">
          <mxGeometry x="60" y="12" width="110" height="26" as="geometry" />
        </mxCell>
        <mxCell id="tdu9kAknkN8920B2DEsd-4" value="&lt;font color=&quot;#FFFFFF&quot;&gt;INICIO&lt;/font&gt;" style="strokeWidth=1;shadow=0;dashed=0;align=center;html=1;shape=mxgraph.mockup.containers.anchor;rSize=0;fontSize=17;fontColor=#666666;align=left;" vertex="1" parent="tdu9kAknkN8920B2DEsd-2">
          <mxGeometry x="130" y="60" width="250" height="26" as="geometry" />
        </mxCell>
        <mxCell id="tdu9kAknkN8920B2DEsd-14" value="&lt;font style=&quot;font-size: 27px&quot; color=&quot;#FFFFFF&quot;&gt;&lt;b&gt;1024&lt;/b&gt;CASINO&lt;/font&gt;" style="html=1;shadow=0;dashed=0;fontSize=16;align=left;spacing=2;spacingLeft=55;fillColor=#3D3D3D;fontColor=#212121;" vertex="1" parent="tdu9kAknkN8920B2DEsd-2">
          <mxGeometry y="110" width="1920" height="60" as="geometry" />
        </mxCell>
        <mxCell id="tdu9kAknkN8920B2DEsd-204" value="&lt;div&gt;&lt;br&gt;&lt;/div&gt;" style="rounded=1;html=1;shadow=0;dashed=0;whiteSpace=wrap;fontSize=10;fillColor=#666666;align=center;strokeColor=#4D4D4D;fontColor=#ffffff;sketch=0;" vertex="1" parent="tdu9kAknkN8920B2DEsd-14">
          <mxGeometry x="1760" y="5" width="90" height="50" as="geometry" />
        </mxCell>
        <mxCell id="tdu9kAknkN8920B2DEsd-15" value="" style="html=1;shadow=0;dashed=0;shape=mxgraph.bootstrap.logo;fillColor=#54407A;strokeColor=none;" vertex="1" parent="tdu9kAknkN8920B2DEsd-14">
          <mxGeometry width="40" height="40" relative="1" as="geometry">
            <mxPoint x="10" y="10" as="offset" />
          </mxGeometry>
        </mxCell>
        <mxCell id="tdu9kAknkN8920B2DEsd-94" value="&lt;font style=&quot;font-size: 19px&quot;&gt;&lt;b&gt;About&lt;/b&gt;&lt;/font&gt;" style="strokeColor=none;html=1;whiteSpace=wrap;fillColor=none;fontColor=#181819;align=left;fontSize=20;spacing=10;" vertex="1" parent="tdu9kAknkN8920B2DEsd-14">
          <mxGeometry width="80" height="40" relative="1" as="geometry">
            <mxPoint x="1765" y="10" as="offset" />
          </mxGeometry>
        </mxCell>
        <mxCell id="tdu9kAknkN8920B2DEsd-88" value="" style="verticalLabelPosition=bottom;shadow=0;dashed=0;verticalAlign=top;strokeWidth=1;html=1;shape=mxgraph.mockup.misc.volumeIcon;sketch=0;fillColor=#2B2B2B;gradientColor=none;" vertex="1" parent="tdu9kAknkN8920B2DEsd-14">
          <mxGeometry x="1860" y="5" width="50" height="50" as="geometry" />
        </mxCell>
        <mxCell id="tdu9kAknkN8920B2DEsd-206" value="&lt;div&gt;&lt;br&gt;&lt;/div&gt;" style="rounded=1;html=1;shadow=0;dashed=0;whiteSpace=wrap;fontSize=10;fillColor=#666666;align=center;strokeColor=#4D4D4D;fontColor=#ffffff;sketch=0;" vertex="1" parent="tdu9kAknkN8920B2DEsd-14">
          <mxGeometry x="1660" y="5" width="90" height="50" as="geometry" />
        </mxCell>
        <mxCell id="tdu9kAknkN8920B2DEsd-95" value="Guia" style="html=1;whiteSpace=wrap;fillColor=none;align=left;fontSize=23;spacing=10;strokeColor=none;fontStyle=1;fontColor=#1C1C1C;" vertex="1" parent="tdu9kAknkN8920B2DEsd-14">
          <mxGeometry width="70" height="40" relative="1" as="geometry">
            <mxPoint x="1610" y="120" as="offset" />
          </mxGeometry>
        </mxCell>
        <mxCell id="tdu9kAknkN8920B2DEsd-207" value="&lt;b style=&quot;font-size: 19px;&quot;&gt;&amp;nbsp;Guia&lt;/b&gt;" style="strokeColor=none;html=1;whiteSpace=wrap;fillColor=none;fontColor=#181819;align=left;fontSize=19;spacing=10;" vertex="1" parent="tdu9kAknkN8920B2DEsd-14">
          <mxGeometry x="1665" y="10" width="80" height="40" as="geometry" />
        </mxCell>
        <mxCell id="tdu9kAknkN8920B2DEsd-17" value="&lt;div&gt;&lt;br&gt;&lt;/div&gt;&lt;div&gt;&lt;br&gt;&lt;/div&gt;" style="strokeWidth=1;shadow=0;align=center;html=1;shape=mxgraph.mockup.containers.window;align=left;verticalAlign=top;spacingLeft=8;strokeColor2=#008cff;strokeColor3=#c4c4c4;fontColor=#666666;mainText=;fontSize=17;labelBackgroundColor=none;fillColor=#3D3D3D;gradientDirection=north;sketch=0;" vertex="1" parent="tdu9kAknkN8920B2DEsd-2">
          <mxGeometry x="1520" y="180" width="390" height="890" as="geometry" />
        </mxCell>
        <mxCell id="tdu9kAknkN8920B2DEsd-19" value="" style="strokeWidth=1;shadow=0;dashed=0;align=center;html=1;shape=mxgraph.mockup.forms.rrect;rSize=0;sketch=0;strokeColor=#212121;fillColor=#2B2B2B;" vertex="1" parent="tdu9kAknkN8920B2DEsd-2">
          <mxGeometry x="1545" y="260" width="340" height="370" as="geometry" />
        </mxCell>
        <mxCell id="tdu9kAknkN8920B2DEsd-20" value="Sign In" style="strokeWidth=1;shadow=0;dashed=0;align=center;html=1;shape=mxgraph.mockup.forms.anchor;fontSize=12;fontColor=#666666;align=left;resizeWidth=1;spacingLeft=0;" vertex="1" parent="tdu9kAknkN8920B2DEsd-19">
          <mxGeometry width="170" height="20" relative="1" as="geometry">
            <mxPoint x="10" y="10" as="offset" />
          </mxGeometry>
        </mxCell>
        <mxCell id="tdu9kAknkN8920B2DEsd-21" value="" style="shape=line;strokeColor=#ddeeff;strokeWidth=2;html=1;resizeWidth=1;" vertex="1" parent="tdu9kAknkN8920B2DEsd-19">
          <mxGeometry width="320" height="10" relative="1" as="geometry">
            <mxPoint x="10" y="30" as="offset" />
          </mxGeometry>
        </mxCell>
        <mxCell id="tdu9kAknkN8920B2DEsd-22" value="User Name:" style="strokeWidth=1;shadow=0;dashed=0;align=center;html=1;shape=mxgraph.mockup.forms.anchor;fontSize=12;fontColor=#666666;align=left;resizeWidth=1;spacingLeft=0;" vertex="1" parent="tdu9kAknkN8920B2DEsd-19">
          <mxGeometry width="170" height="20" relative="1" as="geometry">
            <mxPoint x="10" y="50" as="offset" />
          </mxGeometry>
        </mxCell>
        <mxCell id="tdu9kAknkN8920B2DEsd-24" value="Password:" style="strokeWidth=1;shadow=0;dashed=0;align=center;html=1;shape=mxgraph.mockup.forms.anchor;fontSize=12;fontColor=#666666;align=left;resizeWidth=1;spacingLeft=0;" vertex="1" parent="tdu9kAknkN8920B2DEsd-19">
          <mxGeometry width="170" height="20" relative="1" as="geometry">
            <mxPoint x="10" y="110" as="offset" />
          </mxGeometry>
        </mxCell>
        <mxCell id="tdu9kAknkN8920B2DEsd-25" value="********" style="strokeWidth=1;shadow=0;dashed=0;align=center;html=1;shape=mxgraph.mockup.forms.rrect;rSize=0;strokeColor=#999999;fontColor=#666666;align=left;spacingLeft=5;resizeWidth=1;" vertex="1" parent="tdu9kAknkN8920B2DEsd-19">
          <mxGeometry width="270" height="30" relative="1" as="geometry">
            <mxPoint x="10" y="130" as="offset" />
          </mxGeometry>
        </mxCell>
        <mxCell id="tdu9kAknkN8920B2DEsd-26" value="SIGN IN" style="strokeWidth=1;shadow=0;dashed=0;align=center;html=1;shape=mxgraph.mockup.forms.rrect;rSize=5;strokeColor=none;fontColor=#ffffff;fillColor=#66bbff;fontSize=16;fontStyle=1;" vertex="1" parent="tdu9kAknkN8920B2DEsd-19">
          <mxGeometry y="1" width="80" height="30" relative="1" as="geometry">
            <mxPoint x="10" y="-190" as="offset" />
          </mxGeometry>
        </mxCell>
        <mxCell id="tdu9kAknkN8920B2DEsd-27" value="Forgot Password?" style="strokeWidth=1;shadow=0;dashed=0;align=center;html=1;shape=mxgraph.mockup.forms.anchor;fontSize=12;fontColor=#9999ff;align=left;spacingLeft=0;fontStyle=4;resizeWidth=1;" vertex="1" parent="tdu9kAknkN8920B2DEsd-19">
          <mxGeometry y="1" width="255" height="20" relative="1" as="geometry">
            <mxPoint x="10" y="-120" as="offset" />
          </mxGeometry>
        </mxCell>
        <mxCell id="tdu9kAknkN8920B2DEsd-29" value="New User" style="strokeWidth=1;shadow=0;dashed=0;align=center;html=1;shape=mxgraph.mockup.forms.anchor;fontSize=12;fontColor=#666666;align=left;spacingLeft=0;resizeWidth=1;" vertex="1" parent="tdu9kAknkN8920B2DEsd-19">
          <mxGeometry y="1" width="255" height="20" relative="1" as="geometry">
            <mxPoint x="10" y="-75" as="offset" />
          </mxGeometry>
        </mxCell>
        <mxCell id="tdu9kAknkN8920B2DEsd-30" value="SIGN UP" style="strokeWidth=1;shadow=0;dashed=0;align=center;html=1;shape=mxgraph.mockup.forms.rrect;rSize=5;strokeColor=none;fontColor=#ffffff;fillColor=#66bbff;fontSize=16;fontStyle=1;" vertex="1" parent="tdu9kAknkN8920B2DEsd-19">
          <mxGeometry y="1" width="80" height="30" relative="1" as="geometry">
            <mxPoint x="10" y="-40" as="offset" />
          </mxGeometry>
        </mxCell>
        <mxCell id="tdu9kAknkN8920B2DEsd-32" value="********" style="strokeWidth=1;shadow=0;dashed=0;align=center;html=1;shape=mxgraph.mockup.forms.rrect;rSize=0;strokeColor=#999999;fontColor=#666666;align=left;spacingLeft=5;resizeWidth=1;" vertex="1" parent="tdu9kAknkN8920B2DEsd-19">
          <mxGeometry x="10" y="70" width="270" height="30" as="geometry" />
        </mxCell>
        <mxCell id="tdu9kAknkN8920B2DEsd-34" value="" style="shape=line;strokeColor=#ddeeff;strokeWidth=2;html=1;resizeWidth=1;" vertex="1" parent="tdu9kAknkN8920B2DEsd-19">
          <mxGeometry x="10" y="280" width="320" height="10" as="geometry" />
        </mxCell>
        <mxCell id="tdu9kAknkN8920B2DEsd-35" value="" style="strokeWidth=1;shadow=0;dashed=0;align=center;html=1;shape=mxgraph.mockup.graphics.rrect;rSize=0;sketch=0;fillColor=#2B2B2B;gradientColor=none;strokeColor=#212121;" vertex="1" parent="tdu9kAknkN8920B2DEsd-2">
          <mxGeometry x="1545" y="680" width="340" height="370" as="geometry" />
        </mxCell>
        <mxCell id="tdu9kAknkN8920B2DEsd-36" value="#" style="strokeColor=inherit;fillColor=inherit;gradientColor=inherit;strokeWidth=1;shadow=0;dashed=0;align=center;html=1;shape=mxgraph.mockup.graphics.rrect;rSize=0;fontColor=#666666;" vertex="1" parent="tdu9kAknkN8920B2DEsd-35">
          <mxGeometry width="20" height="49.33" as="geometry" />
        </mxCell>
        <mxCell id="tdu9kAknkN8920B2DEsd-40" value="20//10//2014" style="strokeColor=inherit;fillColor=inherit;gradientColor=inherit;strokeWidth=1;shadow=0;dashed=0;align=center;html=1;shape=mxgraph.mockup.graphics.rrect;rSize=0;fontColor=#666666;" vertex="1" parent="tdu9kAknkN8920B2DEsd-35">
          <mxGeometry x="136" width="119" height="24.66666666666667" as="geometry" />
        </mxCell>
        <mxCell id="tdu9kAknkN8920B2DEsd-41" value="27//10//2014" style="strokeColor=inherit;fillColor=inherit;gradientColor=inherit;strokeWidth=1;shadow=0;dashed=0;align=center;html=1;shape=mxgraph.mockup.graphics.rrect;rSize=0;fontColor=#666666;" vertex="1" parent="tdu9kAknkN8920B2DEsd-35">
          <mxGeometry x="255" width="85" height="24.66666666666667" as="geometry" />
        </mxCell>
        <mxCell id="tdu9kAknkN8920B2DEsd-42" value="M" style="strokeColor=inherit;fillColor=inherit;gradientColor=inherit;strokeWidth=1;shadow=0;dashed=0;align=center;html=1;shape=mxgraph.mockup.graphics.rrect;rSize=0;;fontColor=#666666;" vertex="1" parent="tdu9kAknkN8920B2DEsd-35">
          <mxGeometry x="136" y="24.66666666666667" width="17" height="24.66666666666667" as="geometry" />
        </mxCell>
        <mxCell id="tdu9kAknkN8920B2DEsd-43" value="T" style="strokeColor=inherit;fillColor=inherit;gradientColor=inherit;strokeWidth=1;shadow=0;dashed=0;align=center;html=1;shape=mxgraph.mockup.graphics.rrect;rSize=0;fontColor=#666666;" vertex="1" parent="tdu9kAknkN8920B2DEsd-35">
          <mxGeometry x="153" y="24.66666666666667" width="17" height="24.66666666666667" as="geometry" />
        </mxCell>
        <mxCell id="tdu9kAknkN8920B2DEsd-44" value="W" style="strokeColor=inherit;fillColor=inherit;gradientColor=inherit;strokeWidth=1;shadow=0;dashed=0;align=center;html=1;shape=mxgraph.mockup.graphics.rrect;rSize=0;fontColor=#666666;" vertex="1" parent="tdu9kAknkN8920B2DEsd-35">
          <mxGeometry x="170" y="24.66666666666667" width="17" height="24.66666666666667" as="geometry" />
        </mxCell>
        <mxCell id="tdu9kAknkN8920B2DEsd-45" value="T" style="strokeColor=inherit;fillColor=inherit;gradientColor=inherit;strokeWidth=1;shadow=0;dashed=0;align=center;html=1;shape=mxgraph.mockup.graphics.rrect;rSize=0;fontColor=#666666;" vertex="1" parent="tdu9kAknkN8920B2DEsd-35">
          <mxGeometry x="186.99999999999997" y="24.66666666666667" width="17" height="24.66666666666667" as="geometry" />
        </mxCell>
        <mxCell id="tdu9kAknkN8920B2DEsd-46" value="F" style="strokeColor=inherit;fillColor=inherit;gradientColor=inherit;strokeWidth=1;shadow=0;dashed=0;align=center;html=1;shape=mxgraph.mockup.graphics.rrect;rSize=0;fontColor=#666666;" vertex="1" parent="tdu9kAknkN8920B2DEsd-35">
          <mxGeometry x="203.99999999999997" y="24.66666666666667" width="17" height="24.66666666666667" as="geometry" />
        </mxCell>
        <mxCell id="tdu9kAknkN8920B2DEsd-47" value="S" style="strokeColor=inherit;fillColor=inherit;gradientColor=inherit;strokeWidth=1;shadow=0;dashed=0;align=center;html=1;shape=mxgraph.mockup.graphics.rrect;rSize=0;fontColor=#666666;" vertex="1" parent="tdu9kAknkN8920B2DEsd-35">
          <mxGeometry x="221" y="24.66666666666667" width="17" height="24.66666666666667" as="geometry" />
        </mxCell>
        <mxCell id="tdu9kAknkN8920B2DEsd-48" value="S" style="strokeColor=inherit;fillColor=inherit;gradientColor=inherit;strokeWidth=1;shadow=0;dashed=0;align=center;html=1;shape=mxgraph.mockup.graphics.rrect;rSize=0;fontColor=#666666;" vertex="1" parent="tdu9kAknkN8920B2DEsd-35">
          <mxGeometry x="238" y="24.66666666666667" width="17" height="24.66666666666667" as="geometry" />
        </mxCell>
        <mxCell id="tdu9kAknkN8920B2DEsd-49" value="M" style="strokeColor=inherit;fillColor=inherit;gradientColor=inherit;strokeWidth=1;shadow=0;dashed=0;align=center;html=1;shape=mxgraph.mockup.graphics.rrect;rSize=0;fontColor=#666666;" vertex="1" parent="tdu9kAknkN8920B2DEsd-35">
          <mxGeometry x="255" y="24.66666666666667" width="17" height="24.66666666666667" as="geometry" />
        </mxCell>
        <mxCell id="tdu9kAknkN8920B2DEsd-50" value="T" style="strokeColor=inherit;fillColor=inherit;gradientColor=inherit;strokeWidth=1;shadow=0;dashed=0;align=center;html=1;shape=mxgraph.mockup.graphics.rrect;rSize=0;fontColor=#666666;" vertex="1" parent="tdu9kAknkN8920B2DEsd-35">
          <mxGeometry x="272" y="24.66666666666667" width="17" height="24.66666666666667" as="geometry" />
        </mxCell>
        <mxCell id="tdu9kAknkN8920B2DEsd-51" value="W" style="strokeColor=inherit;fillColor=inherit;gradientColor=inherit;strokeWidth=1;shadow=0;dashed=0;align=center;html=1;shape=mxgraph.mockup.graphics.rrect;rSize=0;fontColor=#666666;" vertex="1" parent="tdu9kAknkN8920B2DEsd-35">
          <mxGeometry x="289" y="24.66666666666667" width="17" height="24.66666666666667" as="geometry" />
        </mxCell>
        <mxCell id="tdu9kAknkN8920B2DEsd-52" value="T" style="strokeColor=inherit;fillColor=inherit;gradientColor=inherit;strokeWidth=1;shadow=0;dashed=0;align=center;html=1;shape=mxgraph.mockup.graphics.rrect;rSize=0;fontColor=#666666;" vertex="1" parent="tdu9kAknkN8920B2DEsd-35">
          <mxGeometry x="306" y="24.66666666666667" width="17" height="24.66666666666667" as="geometry" />
        </mxCell>
        <mxCell id="tdu9kAknkN8920B2DEsd-53" value="F" style="strokeColor=inherit;fillColor=inherit;gradientColor=inherit;strokeWidth=1;shadow=0;dashed=0;align=center;html=1;shape=mxgraph.mockup.graphics.rrect;rSize=0;fontColor=#666666;" vertex="1" parent="tdu9kAknkN8920B2DEsd-35">
          <mxGeometry x="323" y="24.66666666666667" width="17" height="24.66666666666667" as="geometry" />
        </mxCell>
        <mxCell id="tdu9kAknkN8920B2DEsd-54" value="" style="strokeColor=inherit;fillColor=inherit;gradientColor=inherit;strokeWidth=1;shadow=0;dashed=0;align=center;html=1;shape=mxgraph.mockup.graphics.rrect;rSize=0;fontColor=#666666;" vertex="1" parent="tdu9kAknkN8920B2DEsd-35">
          <mxGeometry y="49.33333333333334" width="136" height="320.66666666666674" as="geometry" />
        </mxCell>
        <mxCell id="tdu9kAknkN8920B2DEsd-55" value="" style="strokeColor=inherit;fillColor=inherit;gradientColor=inherit;strokeWidth=1;shadow=0;dashed=0;align=center;html=1;shape=mxgraph.mockup.graphics.rrect;rSize=0;fontColor=#666666;" vertex="1" parent="tdu9kAknkN8920B2DEsd-35">
          <mxGeometry x="136" y="49.33333333333334" width="34" height="320.66666666666674" as="geometry" />
        </mxCell>
        <mxCell id="tdu9kAknkN8920B2DEsd-56" value="" style="strokeColor=inherit;fillColor=inherit;gradientColor=inherit;strokeWidth=1;shadow=0;dashed=0;align=center;html=1;shape=mxgraph.mockup.graphics.rrect;rSize=0;fontColor=#666666;" vertex="1" parent="tdu9kAknkN8920B2DEsd-35">
          <mxGeometry x="170" y="49.33333333333334" width="34" height="320.66666666666674" as="geometry" />
        </mxCell>
        <mxCell id="tdu9kAknkN8920B2DEsd-57" value="" style="strokeColor=inherit;fillColor=inherit;gradientColor=inherit;strokeWidth=1;shadow=0;dashed=0;align=center;html=1;shape=mxgraph.mockup.graphics.rrect;rSize=0;fontColor=#666666;" vertex="1" parent="tdu9kAknkN8920B2DEsd-35">
          <mxGeometry x="203.99999999999997" y="49.33333333333334" width="34" height="320.66666666666674" as="geometry" />
        </mxCell>
        <mxCell id="tdu9kAknkN8920B2DEsd-58" value="" style="strokeColor=inherit;fillColor=inherit;gradientColor=inherit;strokeWidth=1;shadow=0;dashed=0;align=center;html=1;shape=mxgraph.mockup.graphics.rrect;rSize=0;fontColor=#666666;" vertex="1" parent="tdu9kAknkN8920B2DEsd-35">
          <mxGeometry x="238" y="49.33333333333334" width="34" height="320.66666666666674" as="geometry" />
        </mxCell>
        <mxCell id="tdu9kAknkN8920B2DEsd-59" value="" style="strokeColor=inherit;fillColor=inherit;gradientColor=inherit;strokeWidth=1;shadow=0;dashed=0;align=center;html=1;shape=mxgraph.mockup.graphics.rrect;rSize=0;fontColor=#666666;" vertex="1" parent="tdu9kAknkN8920B2DEsd-35">
          <mxGeometry x="272" y="49.33333333333334" width="34" height="320.66666666666674" as="geometry" />
        </mxCell>
        <mxCell id="tdu9kAknkN8920B2DEsd-60" value="" style="strokeColor=inherit;fillColor=inherit;gradientColor=inherit;strokeWidth=1;shadow=0;dashed=0;align=center;html=1;shape=mxgraph.mockup.graphics.rrect;rSize=0;fontColor=#666666;" vertex="1" parent="tdu9kAknkN8920B2DEsd-35">
          <mxGeometry x="306" y="49.33333333333334" width="34" height="320.66666666666674" as="geometry" />
        </mxCell>
        <mxCell id="tdu9kAknkN8920B2DEsd-61" value="1" style="strokeWidth=1;shadow=0;dashed=0;align=center;html=1;shape=mxgraph.mockup.graphics.anchor;fontColor=#666666;" vertex="1" parent="tdu9kAknkN8920B2DEsd-35">
          <mxGeometry y="49.33333333333334" width="11.333333333333332" height="24.66666666666667" as="geometry" />
        </mxCell>
        <mxCell id="tdu9kAknkN8920B2DEsd-63" value="20//10//2014 8:00 AM" style="strokeWidth=1;shadow=0;dashed=0;align=center;html=1;shape=mxgraph.mockup.graphics.anchor;fontColor=#666666;" vertex="1" parent="tdu9kAknkN8920B2DEsd-35">
          <mxGeometry x="34" y="49.33333333333334" width="73.66666666666667" height="24.66666666666667" as="geometry" />
        </mxCell>
        <mxCell id="tdu9kAknkN8920B2DEsd-65" value="2" style="strokeWidth=1;shadow=0;dashed=0;align=center;html=1;shape=mxgraph.mockup.graphics.anchor;fontColor=#666666;" vertex="1" parent="tdu9kAknkN8920B2DEsd-35">
          <mxGeometry y="74" width="11.333333333333332" height="24.66666666666667" as="geometry" />
        </mxCell>
        <mxCell id="tdu9kAknkN8920B2DEsd-67" value="20//10//2014 8:00 AM" style="strokeWidth=1;shadow=0;dashed=0;align=center;html=1;shape=mxgraph.mockup.graphics.anchor;fontColor=#666666;" vertex="1" parent="tdu9kAknkN8920B2DEsd-35">
          <mxGeometry x="34" y="74" width="73.66666666666667" height="24.66666666666667" as="geometry" />
        </mxCell>
        <mxCell id="tdu9kAknkN8920B2DEsd-69" value="3" style="strokeWidth=1;shadow=0;dashed=0;align=center;html=1;shape=mxgraph.mockup.graphics.anchor;fontColor=#666666;" vertex="1" parent="tdu9kAknkN8920B2DEsd-35">
          <mxGeometry y="98.66666666666669" width="11.333333333333332" height="24.66666666666667" as="geometry" />
        </mxCell>
        <mxCell id="tdu9kAknkN8920B2DEsd-71" value="20//10//2014 8:00 AM" style="strokeWidth=1;shadow=0;dashed=0;align=center;html=1;shape=mxgraph.mockup.graphics.anchor;fontColor=#666666;" vertex="1" parent="tdu9kAknkN8920B2DEsd-35">
          <mxGeometry x="34" y="98.66666666666669" width="73.66666666666667" height="24.66666666666667" as="geometry" />
        </mxCell>
        <mxCell id="tdu9kAknkN8920B2DEsd-72" value="" style="strokeWidth=1;shadow=0;dashed=0;align=center;html=1;shape=mxgraph.mockup.graphics.anchor;fontColor=#666666;" vertex="1" parent="tdu9kAknkN8920B2DEsd-35">
          <mxGeometry x="107.66666666666666" y="98.66666666666669" width="28.333333333333332" height="24.66666666666667" as="geometry" />
        </mxCell>
        <mxCell id="tdu9kAknkN8920B2DEsd-73" value="4" style="strokeWidth=1;shadow=0;dashed=0;align=center;html=1;shape=mxgraph.mockup.graphics.anchor;fontColor=#666666;" vertex="1" parent="tdu9kAknkN8920B2DEsd-35">
          <mxGeometry y="123.33333333333336" width="11.333333333333332" height="24.66666666666667" as="geometry" />
        </mxCell>
        <mxCell id="tdu9kAknkN8920B2DEsd-75" value="20//10//2014 8:00 AM" style="strokeWidth=1;shadow=0;dashed=0;align=center;html=1;shape=mxgraph.mockup.graphics.anchor;fontColor=#666666;" vertex="1" parent="tdu9kAknkN8920B2DEsd-35">
          <mxGeometry x="34" y="123.33333333333336" width="73.66666666666667" height="24.66666666666667" as="geometry" />
        </mxCell>
        <mxCell id="tdu9kAknkN8920B2DEsd-77" value="" style="strokeWidth=1;shadow=0;dashed=0;align=center;html=1;shape=mxgraph.mockup.graphics.rrect;rSize=0;strokeColor=none;fillColor=#aaddff;" vertex="1" parent="tdu9kAknkN8920B2DEsd-35">
          <mxGeometry x="141.66666666666666" y="55.50000000000001" width="73.66666666666667" height="12.333333333333336" as="geometry" />
        </mxCell>
        <mxCell id="tdu9kAknkN8920B2DEsd-78" value="" style="strokeWidth=1;shadow=0;dashed=0;align=center;html=1;shape=mxgraph.mockup.graphics.rrect;rSize=0;strokeColor=none;fillColor=#aaddff;" vertex="1" parent="tdu9kAknkN8920B2DEsd-35">
          <mxGeometry x="141.66666666666666" y="80.16666666666669" width="22.666666666666664" height="12.333333333333336" as="geometry" />
        </mxCell>
        <mxCell id="tdu9kAknkN8920B2DEsd-79" value="" style="strokeWidth=1;shadow=0;dashed=0;align=center;html=1;shape=mxgraph.mockup.graphics.rrect;rSize=0;strokeColor=none;fillColor=#aaddff;" vertex="1" parent="tdu9kAknkN8920B2DEsd-35">
          <mxGeometry x="158.66666666666666" y="104.83333333333336" width="56.666666666666664" height="12.333333333333336" as="geometry" />
        </mxCell>
        <mxCell id="tdu9kAknkN8920B2DEsd-80" value="" style="strokeWidth=1;shadow=0;dashed=0;align=center;html=1;shape=mxgraph.mockup.graphics.rrect;rSize=0;strokeColor=none;fillColor=#aaddff;" vertex="1" parent="tdu9kAknkN8920B2DEsd-35">
          <mxGeometry x="192.66666666666663" y="129.50000000000003" width="39.666666666666664" height="12.333333333333336" as="geometry" />
        </mxCell>
        <mxCell id="tdu9kAknkN8920B2DEsd-90" value="Ranking" style="text;strokeColor=none;fillColor=none;html=1;fontSize=24;fontStyle=1;verticalAlign=middle;align=center;shadow=0;sketch=0;" vertex="1" parent="tdu9kAknkN8920B2DEsd-2">
          <mxGeometry x="1667.5" y="640" width="95" height="30" as="geometry" />
        </mxCell>
        <mxCell id="tdu9kAknkN8920B2DEsd-91" value="Welcome" style="text;strokeColor=none;fillColor=none;html=1;fontSize=24;fontStyle=1;verticalAlign=middle;align=center;shadow=0;sketch=0;" vertex="1" parent="tdu9kAknkN8920B2DEsd-2">
          <mxGeometry x="1667.5" y="220" width="95" height="30" as="geometry" />
        </mxCell>
        <mxCell id="tdu9kAknkN8920B2DEsd-97" value="" style="verticalLabelPosition=bottom;shadow=0;dashed=0;align=center;html=1;verticalAlign=top;strokeWidth=1;shape=mxgraph.mockup.navigation.coverFlow;strokeColor=#999999;sketch=0;fillColor=#212121;gradientColor=none;fontSize=20;fontColor=#1C1C1C;" vertex="1" parent="tdu9kAknkN8920B2DEsd-2">
          <mxGeometry x="60" y="250" width="1400" height="330" as="geometry" />
        </mxCell>
        <mxCell id="tdu9kAknkN8920B2DEsd-175" value="NOMBRE JUEGO1" style="html=1;shadow=0;dashed=0;shape=mxgraph.bootstrap.rrect;rSize=5;strokeColor=#2D3338;html=1;whiteSpace=wrap;fillColor=#868E96;fontColor=#ffffff;verticalAlign=middle;align=center;spacing=20;fontSize=60;sketch=0;" vertex="1" parent="tdu9kAknkN8920B2DEsd-2">
          <mxGeometry x="430.37" y="650" width="659.25" height="180" as="geometry" />
        </mxCell>
        <mxCell id="tdu9kAknkN8920B2DEsd-177" value="&lt;div&gt;Proximamente...&lt;/div&gt;&lt;div&gt;(JUEGO 2)&lt;br&gt;&lt;/div&gt;" style="html=1;shadow=0;dashed=0;shape=mxgraph.bootstrap.rrect;rSize=5;strokeColor=#2D3338;html=1;whiteSpace=wrap;fillColor=#868E96;fontColor=#ffffff;verticalAlign=middle;align=center;spacing=20;fontSize=60;sketch=0;" vertex="1" parent="tdu9kAknkN8920B2DEsd-2">
          <mxGeometry x="472.5" y="880" width="575" height="150" as="geometry" />
        </mxCell>
        <mxCell id="tdu9kAknkN8920B2DEsd-200" value="&lt;div&gt;Al hacer hoover se&lt;/div&gt;&lt;div&gt;desliza la tarjeta &lt;br&gt;&lt;/div&gt;&lt;div&gt;hacia la izquierda&lt;/div&gt;&lt;div&gt;y aparece una&lt;/div&gt;&lt;div&gt;descripcion de este&lt;/div&gt;&lt;div&gt;en la derecha&lt;br&gt;&lt;/div&gt;" style="strokeWidth=1;shadow=0;dashed=0;align=center;html=1;shape=mxgraph.mockup.text.stickyNote2;fontColor=#666666;mainText=;fontSize=17;whiteSpace=wrap;fillColor=#ffffcc;strokeColor=#F62E00;sketch=0;" vertex="1" parent="tdu9kAknkN8920B2DEsd-2">
          <mxGeometry x="1040" y="660" width="200" height="200" as="geometry" />
        </mxCell>
        <mxCell id="tdu9kAknkN8920B2DEsd-98" value="" style="verticalLabelPosition=bottom;shadow=0;dashed=0;align=center;html=1;verticalAlign=top;strokeWidth=1;shape=mxgraph.mockup.containers.videoPlayer;strokeColor=#666666;strokeColor2=#008cff;strokeColor3=#c4c4c4;textColor=#666666;fillColor2=#008cff;barHeight=30;barPos=20;sketch=0;fillColor=#212121;gradientColor=none;fontSize=20;fontColor=#1C1C1C;" vertex="1" parent="1">
          <mxGeometry x="570" y="290" width="470" height="330" as="geometry" />
        </mxCell>
        <mxCell id="tdu9kAknkN8920B2DEsd-275" value="" style="strokeWidth=1;shadow=0;dashed=0;align=center;html=1;shape=mxgraph.mockup.containers.browserWindow;rSize=0;strokeColor2=#008cff;strokeColor3=#c4c4c4;mainText=,;recursiveResize=0;fillColor=#4F4F4F;noLabel=0;sketch=0;" vertex="1" parent="1">
          <mxGeometry x="40" y="1169" width="1920" height="1080" as="geometry" />
        </mxCell>
        <mxCell id="tdu9kAknkN8920B2DEsd-276" value="&lt;font color=&quot;#FFFFFF&quot;&gt;INICIO&lt;/font&gt;" style="strokeWidth=1;shadow=0;dashed=0;align=center;html=1;shape=mxgraph.mockup.containers.anchor;fontSize=17;fontColor=#666666;align=left;" vertex="1" parent="tdu9kAknkN8920B2DEsd-275">
          <mxGeometry x="60" y="12" width="110" height="26" as="geometry" />
        </mxCell>
        <mxCell id="tdu9kAknkN8920B2DEsd-277" value="&lt;font color=&quot;#FFFFFF&quot;&gt;INICIO&lt;/font&gt;" style="strokeWidth=1;shadow=0;dashed=0;align=center;html=1;shape=mxgraph.mockup.containers.anchor;rSize=0;fontSize=17;fontColor=#666666;align=left;" vertex="1" parent="tdu9kAknkN8920B2DEsd-275">
          <mxGeometry x="130" y="60" width="250" height="26" as="geometry" />
        </mxCell>
        <mxCell id="tdu9kAknkN8920B2DEsd-278" value="&lt;font style=&quot;font-size: 27px&quot; color=&quot;#FFFFFF&quot;&gt;&lt;b&gt;1024&lt;/b&gt;CASINO&lt;/font&gt;" style="html=1;shadow=0;dashed=0;fontSize=16;align=left;spacing=2;spacingLeft=55;fillColor=#3D3D3D;fontColor=#212121;" vertex="1" parent="tdu9kAknkN8920B2DEsd-275">
          <mxGeometry y="110" width="1920" height="60" as="geometry" />
        </mxCell>
        <mxCell id="tdu9kAknkN8920B2DEsd-279" value="&lt;div&gt;&lt;br&gt;&lt;/div&gt;" style="rounded=1;html=1;shadow=0;dashed=0;whiteSpace=wrap;fontSize=10;fillColor=#666666;align=center;strokeColor=#4D4D4D;fontColor=#ffffff;sketch=0;" vertex="1" parent="tdu9kAknkN8920B2DEsd-278">
          <mxGeometry x="1760" y="5" width="90" height="50" as="geometry" />
        </mxCell>
        <mxCell id="tdu9kAknkN8920B2DEsd-280" value="" style="html=1;shadow=0;dashed=0;shape=mxgraph.bootstrap.logo;fillColor=#54407A;strokeColor=none;" vertex="1" parent="tdu9kAknkN8920B2DEsd-278">
          <mxGeometry width="40" height="40" relative="1" as="geometry">
            <mxPoint x="10" y="10" as="offset" />
          </mxGeometry>
        </mxCell>
        <mxCell id="tdu9kAknkN8920B2DEsd-281" value="&lt;font style=&quot;font-size: 19px&quot;&gt;&lt;b&gt;About&lt;/b&gt;&lt;/font&gt;" style="strokeColor=none;html=1;whiteSpace=wrap;fillColor=none;fontColor=#181819;align=left;fontSize=20;spacing=10;" vertex="1" parent="tdu9kAknkN8920B2DEsd-278">
          <mxGeometry width="80" height="40" relative="1" as="geometry">
            <mxPoint x="1765" y="10" as="offset" />
          </mxGeometry>
        </mxCell>
        <mxCell id="tdu9kAknkN8920B2DEsd-282" value="" style="verticalLabelPosition=bottom;shadow=0;dashed=0;verticalAlign=top;strokeWidth=1;html=1;shape=mxgraph.mockup.misc.volumeIcon;sketch=0;fillColor=#2B2B2B;gradientColor=none;" vertex="1" parent="tdu9kAknkN8920B2DEsd-278">
          <mxGeometry x="1860" y="5" width="50" height="50" as="geometry" />
        </mxCell>
        <mxCell id="tdu9kAknkN8920B2DEsd-283" value="&lt;div&gt;&lt;br&gt;&lt;/div&gt;" style="rounded=1;html=1;shadow=0;dashed=0;whiteSpace=wrap;fontSize=10;fillColor=#666666;align=center;strokeColor=#4D4D4D;fontColor=#ffffff;sketch=0;" vertex="1" parent="tdu9kAknkN8920B2DEsd-278">
          <mxGeometry x="1660" y="5" width="90" height="50" as="geometry" />
        </mxCell>
        <mxCell id="tdu9kAknkN8920B2DEsd-285" value="&lt;b style=&quot;font-size: 19px;&quot;&gt;&amp;nbsp;Guia&lt;/b&gt;" style="strokeColor=none;html=1;whiteSpace=wrap;fillColor=none;fontColor=#181819;align=left;fontSize=19;spacing=10;" vertex="1" parent="tdu9kAknkN8920B2DEsd-278">
          <mxGeometry x="1665" y="10" width="80" height="40" as="geometry" />
        </mxCell>
        <mxCell id="tdu9kAknkN8920B2DEsd-299" value="" style="strokeWidth=1;shadow=0;dashed=0;align=center;html=1;shape=mxgraph.mockup.graphics.rrect;rSize=0;sketch=0;fillColor=#2B2B2B;gradientColor=none;strokeColor=#212121;" vertex="1" parent="tdu9kAknkN8920B2DEsd-275">
          <mxGeometry x="2025" y="-449" width="340" height="370" as="geometry" />
        </mxCell>
        <mxCell id="tdu9kAknkN8920B2DEsd-300" value="#" style="strokeColor=inherit;fillColor=inherit;gradientColor=inherit;strokeWidth=1;shadow=0;dashed=0;align=center;html=1;shape=mxgraph.mockup.graphics.rrect;rSize=0;fontColor=#666666;" vertex="1" parent="tdu9kAknkN8920B2DEsd-299">
          <mxGeometry width="20" height="49.33" as="geometry" />
        </mxCell>
        <mxCell id="tdu9kAknkN8920B2DEsd-301" value="20//10//2014" style="strokeColor=inherit;fillColor=inherit;gradientColor=inherit;strokeWidth=1;shadow=0;dashed=0;align=center;html=1;shape=mxgraph.mockup.graphics.rrect;rSize=0;fontColor=#666666;" vertex="1" parent="tdu9kAknkN8920B2DEsd-299">
          <mxGeometry x="136" width="119" height="24.66666666666667" as="geometry" />
        </mxCell>
        <mxCell id="tdu9kAknkN8920B2DEsd-302" value="27//10//2014" style="strokeColor=inherit;fillColor=inherit;gradientColor=inherit;strokeWidth=1;shadow=0;dashed=0;align=center;html=1;shape=mxgraph.mockup.graphics.rrect;rSize=0;fontColor=#666666;" vertex="1" parent="tdu9kAknkN8920B2DEsd-299">
          <mxGeometry x="255" width="85" height="24.66666666666667" as="geometry" />
        </mxCell>
        <mxCell id="tdu9kAknkN8920B2DEsd-303" value="M" style="strokeColor=inherit;fillColor=inherit;gradientColor=inherit;strokeWidth=1;shadow=0;dashed=0;align=center;html=1;shape=mxgraph.mockup.graphics.rrect;rSize=0;;fontColor=#666666;" vertex="1" parent="tdu9kAknkN8920B2DEsd-299">
          <mxGeometry x="136" y="24.66666666666667" width="17" height="24.66666666666667" as="geometry" />
        </mxCell>
        <mxCell id="tdu9kAknkN8920B2DEsd-304" value="T" style="strokeColor=inherit;fillColor=inherit;gradientColor=inherit;strokeWidth=1;shadow=0;dashed=0;align=center;html=1;shape=mxgraph.mockup.graphics.rrect;rSize=0;fontColor=#666666;" vertex="1" parent="tdu9kAknkN8920B2DEsd-299">
          <mxGeometry x="153" y="24.66666666666667" width="17" height="24.66666666666667" as="geometry" />
        </mxCell>
        <mxCell id="tdu9kAknkN8920B2DEsd-305" value="W" style="strokeColor=inherit;fillColor=inherit;gradientColor=inherit;strokeWidth=1;shadow=0;dashed=0;align=center;html=1;shape=mxgraph.mockup.graphics.rrect;rSize=0;fontColor=#666666;" vertex="1" parent="tdu9kAknkN8920B2DEsd-299">
          <mxGeometry x="170" y="24.66666666666667" width="17" height="24.66666666666667" as="geometry" />
        </mxCell>
        <mxCell id="tdu9kAknkN8920B2DEsd-306" value="T" style="strokeColor=inherit;fillColor=inherit;gradientColor=inherit;strokeWidth=1;shadow=0;dashed=0;align=center;html=1;shape=mxgraph.mockup.graphics.rrect;rSize=0;fontColor=#666666;" vertex="1" parent="tdu9kAknkN8920B2DEsd-299">
          <mxGeometry x="186.99999999999997" y="24.66666666666667" width="17" height="24.66666666666667" as="geometry" />
        </mxCell>
        <mxCell id="tdu9kAknkN8920B2DEsd-307" value="F" style="strokeColor=inherit;fillColor=inherit;gradientColor=inherit;strokeWidth=1;shadow=0;dashed=0;align=center;html=1;shape=mxgraph.mockup.graphics.rrect;rSize=0;fontColor=#666666;" vertex="1" parent="tdu9kAknkN8920B2DEsd-299">
          <mxGeometry x="203.99999999999997" y="24.66666666666667" width="17" height="24.66666666666667" as="geometry" />
        </mxCell>
        <mxCell id="tdu9kAknkN8920B2DEsd-308" value="S" style="strokeColor=inherit;fillColor=inherit;gradientColor=inherit;strokeWidth=1;shadow=0;dashed=0;align=center;html=1;shape=mxgraph.mockup.graphics.rrect;rSize=0;fontColor=#666666;" vertex="1" parent="tdu9kAknkN8920B2DEsd-299">
          <mxGeometry x="221" y="24.66666666666667" width="17" height="24.66666666666667" as="geometry" />
        </mxCell>
        <mxCell id="tdu9kAknkN8920B2DEsd-309" value="S" style="strokeColor=inherit;fillColor=inherit;gradientColor=inherit;strokeWidth=1;shadow=0;dashed=0;align=center;html=1;shape=mxgraph.mockup.graphics.rrect;rSize=0;fontColor=#666666;" vertex="1" parent="tdu9kAknkN8920B2DEsd-299">
          <mxGeometry x="238" y="24.66666666666667" width="17" height="24.66666666666667" as="geometry" />
        </mxCell>
        <mxCell id="tdu9kAknkN8920B2DEsd-310" value="M" style="strokeColor=inherit;fillColor=inherit;gradientColor=inherit;strokeWidth=1;shadow=0;dashed=0;align=center;html=1;shape=mxgraph.mockup.graphics.rrect;rSize=0;fontColor=#666666;" vertex="1" parent="tdu9kAknkN8920B2DEsd-299">
          <mxGeometry x="255" y="24.66666666666667" width="17" height="24.66666666666667" as="geometry" />
        </mxCell>
        <mxCell id="tdu9kAknkN8920B2DEsd-311" value="T" style="strokeColor=inherit;fillColor=inherit;gradientColor=inherit;strokeWidth=1;shadow=0;dashed=0;align=center;html=1;shape=mxgraph.mockup.graphics.rrect;rSize=0;fontColor=#666666;" vertex="1" parent="tdu9kAknkN8920B2DEsd-299">
          <mxGeometry x="272" y="24.66666666666667" width="17" height="24.66666666666667" as="geometry" />
        </mxCell>
        <mxCell id="tdu9kAknkN8920B2DEsd-312" value="W" style="strokeColor=inherit;fillColor=inherit;gradientColor=inherit;strokeWidth=1;shadow=0;dashed=0;align=center;html=1;shape=mxgraph.mockup.graphics.rrect;rSize=0;fontColor=#666666;" vertex="1" parent="tdu9kAknkN8920B2DEsd-299">
          <mxGeometry x="289" y="24.66666666666667" width="17" height="24.66666666666667" as="geometry" />
        </mxCell>
        <mxCell id="tdu9kAknkN8920B2DEsd-313" value="T" style="strokeColor=inherit;fillColor=inherit;gradientColor=inherit;strokeWidth=1;shadow=0;dashed=0;align=center;html=1;shape=mxgraph.mockup.graphics.rrect;rSize=0;fontColor=#666666;" vertex="1" parent="tdu9kAknkN8920B2DEsd-299">
          <mxGeometry x="306" y="24.66666666666667" width="17" height="24.66666666666667" as="geometry" />
        </mxCell>
        <mxCell id="tdu9kAknkN8920B2DEsd-314" value="F" style="strokeColor=inherit;fillColor=inherit;gradientColor=inherit;strokeWidth=1;shadow=0;dashed=0;align=center;html=1;shape=mxgraph.mockup.graphics.rrect;rSize=0;fontColor=#666666;" vertex="1" parent="tdu9kAknkN8920B2DEsd-299">
          <mxGeometry x="323" y="24.66666666666667" width="17" height="24.66666666666667" as="geometry" />
        </mxCell>
        <mxCell id="tdu9kAknkN8920B2DEsd-315" value="" style="strokeColor=inherit;fillColor=inherit;gradientColor=inherit;strokeWidth=1;shadow=0;dashed=0;align=center;html=1;shape=mxgraph.mockup.graphics.rrect;rSize=0;fontColor=#666666;" vertex="1" parent="tdu9kAknkN8920B2DEsd-299">
          <mxGeometry y="49.33333333333334" width="136" height="320.66666666666674" as="geometry" />
        </mxCell>
        <mxCell id="tdu9kAknkN8920B2DEsd-316" value="" style="strokeColor=inherit;fillColor=inherit;gradientColor=inherit;strokeWidth=1;shadow=0;dashed=0;align=center;html=1;shape=mxgraph.mockup.graphics.rrect;rSize=0;fontColor=#666666;" vertex="1" parent="tdu9kAknkN8920B2DEsd-299">
          <mxGeometry x="136" y="49.33333333333334" width="34" height="320.66666666666674" as="geometry" />
        </mxCell>
        <mxCell id="tdu9kAknkN8920B2DEsd-317" value="" style="strokeColor=inherit;fillColor=inherit;gradientColor=inherit;strokeWidth=1;shadow=0;dashed=0;align=center;html=1;shape=mxgraph.mockup.graphics.rrect;rSize=0;fontColor=#666666;" vertex="1" parent="tdu9kAknkN8920B2DEsd-299">
          <mxGeometry x="170" y="49.33333333333334" width="34" height="320.66666666666674" as="geometry" />
        </mxCell>
        <mxCell id="tdu9kAknkN8920B2DEsd-318" value="" style="strokeColor=inherit;fillColor=inherit;gradientColor=inherit;strokeWidth=1;shadow=0;dashed=0;align=center;html=1;shape=mxgraph.mockup.graphics.rrect;rSize=0;fontColor=#666666;" vertex="1" parent="tdu9kAknkN8920B2DEsd-299">
          <mxGeometry x="203.99999999999997" y="49.33333333333334" width="34" height="320.66666666666674" as="geometry" />
        </mxCell>
        <mxCell id="tdu9kAknkN8920B2DEsd-319" value="" style="strokeColor=inherit;fillColor=inherit;gradientColor=inherit;strokeWidth=1;shadow=0;dashed=0;align=center;html=1;shape=mxgraph.mockup.graphics.rrect;rSize=0;fontColor=#666666;" vertex="1" parent="tdu9kAknkN8920B2DEsd-299">
          <mxGeometry x="238" y="49.33333333333334" width="34" height="320.66666666666674" as="geometry" />
        </mxCell>
        <mxCell id="tdu9kAknkN8920B2DEsd-320" value="" style="strokeColor=inherit;fillColor=inherit;gradientColor=inherit;strokeWidth=1;shadow=0;dashed=0;align=center;html=1;shape=mxgraph.mockup.graphics.rrect;rSize=0;fontColor=#666666;" vertex="1" parent="tdu9kAknkN8920B2DEsd-299">
          <mxGeometry x="272" y="49.33333333333334" width="34" height="320.66666666666674" as="geometry" />
        </mxCell>
        <mxCell id="tdu9kAknkN8920B2DEsd-321" value="" style="strokeColor=inherit;fillColor=inherit;gradientColor=inherit;strokeWidth=1;shadow=0;dashed=0;align=center;html=1;shape=mxgraph.mockup.graphics.rrect;rSize=0;fontColor=#666666;" vertex="1" parent="tdu9kAknkN8920B2DEsd-299">
          <mxGeometry x="306" y="49.33333333333334" width="34" height="320.66666666666674" as="geometry" />
        </mxCell>
        <mxCell id="tdu9kAknkN8920B2DEsd-322" value="1" style="strokeWidth=1;shadow=0;dashed=0;align=center;html=1;shape=mxgraph.mockup.graphics.anchor;fontColor=#666666;" vertex="1" parent="tdu9kAknkN8920B2DEsd-299">
          <mxGeometry y="49.33333333333334" width="11.333333333333332" height="24.66666666666667" as="geometry" />
        </mxCell>
        <mxCell id="tdu9kAknkN8920B2DEsd-323" value="20//10//2014 8:00 AM" style="strokeWidth=1;shadow=0;dashed=0;align=center;html=1;shape=mxgraph.mockup.graphics.anchor;fontColor=#666666;" vertex="1" parent="tdu9kAknkN8920B2DEsd-299">
          <mxGeometry x="34" y="49.33333333333334" width="73.66666666666667" height="24.66666666666667" as="geometry" />
        </mxCell>
        <mxCell id="tdu9kAknkN8920B2DEsd-324" value="2" style="strokeWidth=1;shadow=0;dashed=0;align=center;html=1;shape=mxgraph.mockup.graphics.anchor;fontColor=#666666;" vertex="1" parent="tdu9kAknkN8920B2DEsd-299">
          <mxGeometry y="74" width="11.333333333333332" height="24.66666666666667" as="geometry" />
        </mxCell>
        <mxCell id="tdu9kAknkN8920B2DEsd-325" value="20//10//2014 8:00 AM" style="strokeWidth=1;shadow=0;dashed=0;align=center;html=1;shape=mxgraph.mockup.graphics.anchor;fontColor=#666666;" vertex="1" parent="tdu9kAknkN8920B2DEsd-299">
          <mxGeometry x="34" y="74" width="73.66666666666667" height="24.66666666666667" as="geometry" />
        </mxCell>
        <mxCell id="tdu9kAknkN8920B2DEsd-326" value="3" style="strokeWidth=1;shadow=0;dashed=0;align=center;html=1;shape=mxgraph.mockup.graphics.anchor;fontColor=#666666;" vertex="1" parent="tdu9kAknkN8920B2DEsd-299">
          <mxGeometry y="98.66666666666669" width="11.333333333333332" height="24.66666666666667" as="geometry" />
        </mxCell>
        <mxCell id="tdu9kAknkN8920B2DEsd-327" value="20//10//2014 8:00 AM" style="strokeWidth=1;shadow=0;dashed=0;align=center;html=1;shape=mxgraph.mockup.graphics.anchor;fontColor=#666666;" vertex="1" parent="tdu9kAknkN8920B2DEsd-299">
          <mxGeometry x="34" y="98.66666666666669" width="73.66666666666667" height="24.66666666666667" as="geometry" />
        </mxCell>
        <mxCell id="tdu9kAknkN8920B2DEsd-328" value="" style="strokeWidth=1;shadow=0;dashed=0;align=center;html=1;shape=mxgraph.mockup.graphics.anchor;fontColor=#666666;" vertex="1" parent="tdu9kAknkN8920B2DEsd-299">
          <mxGeometry x="107.66666666666666" y="98.66666666666669" width="28.333333333333332" height="24.66666666666667" as="geometry" />
        </mxCell>
        <mxCell id="tdu9kAknkN8920B2DEsd-329" value="4" style="strokeWidth=1;shadow=0;dashed=0;align=center;html=1;shape=mxgraph.mockup.graphics.anchor;fontColor=#666666;" vertex="1" parent="tdu9kAknkN8920B2DEsd-299">
          <mxGeometry y="123.33333333333336" width="11.333333333333332" height="24.66666666666667" as="geometry" />
        </mxCell>
        <mxCell id="tdu9kAknkN8920B2DEsd-330" value="20//10//2014 8:00 AM" style="strokeWidth=1;shadow=0;dashed=0;align=center;html=1;shape=mxgraph.mockup.graphics.anchor;fontColor=#666666;" vertex="1" parent="tdu9kAknkN8920B2DEsd-299">
          <mxGeometry x="34" y="123.33333333333336" width="73.66666666666667" height="24.66666666666667" as="geometry" />
        </mxCell>
        <mxCell id="tdu9kAknkN8920B2DEsd-331" value="" style="strokeWidth=1;shadow=0;dashed=0;align=center;html=1;shape=mxgraph.mockup.graphics.rrect;rSize=0;strokeColor=none;fillColor=#aaddff;" vertex="1" parent="tdu9kAknkN8920B2DEsd-299">
          <mxGeometry x="141.66666666666666" y="55.50000000000001" width="73.66666666666667" height="12.333333333333336" as="geometry" />
        </mxCell>
        <mxCell id="tdu9kAknkN8920B2DEsd-332" value="" style="strokeWidth=1;shadow=0;dashed=0;align=center;html=1;shape=mxgraph.mockup.graphics.rrect;rSize=0;strokeColor=none;fillColor=#aaddff;" vertex="1" parent="tdu9kAknkN8920B2DEsd-299">
          <mxGeometry x="141.66666666666666" y="80.16666666666669" width="22.666666666666664" height="12.333333333333336" as="geometry" />
        </mxCell>
        <mxCell id="tdu9kAknkN8920B2DEsd-333" value="" style="strokeWidth=1;shadow=0;dashed=0;align=center;html=1;shape=mxgraph.mockup.graphics.rrect;rSize=0;strokeColor=none;fillColor=#aaddff;" vertex="1" parent="tdu9kAknkN8920B2DEsd-299">
          <mxGeometry x="158.66666666666666" y="104.83333333333336" width="56.666666666666664" height="12.333333333333336" as="geometry" />
        </mxCell>
        <mxCell id="tdu9kAknkN8920B2DEsd-334" value="" style="strokeWidth=1;shadow=0;dashed=0;align=center;html=1;shape=mxgraph.mockup.graphics.rrect;rSize=0;strokeColor=none;fillColor=#aaddff;" vertex="1" parent="tdu9kAknkN8920B2DEsd-299">
          <mxGeometry x="192.66666666666663" y="129.50000000000003" width="39.666666666666664" height="12.333333333333336" as="geometry" />
        </mxCell>
        <mxCell id="tdu9kAknkN8920B2DEsd-335" value="Ranking" style="text;strokeColor=none;fillColor=none;html=1;fontSize=24;fontStyle=1;verticalAlign=middle;align=center;shadow=0;sketch=0;" vertex="1" parent="tdu9kAknkN8920B2DEsd-275">
          <mxGeometry x="2147.5" y="-489" width="95" height="30" as="geometry" />
        </mxCell>
        <mxCell id="tdu9kAknkN8920B2DEsd-336" value="Welcome: Usuario!" style="text;strokeColor=none;fillColor=none;html=1;fontSize=24;fontStyle=1;verticalAlign=middle;align=center;shadow=0;sketch=0;" vertex="1" parent="tdu9kAknkN8920B2DEsd-275">
          <mxGeometry x="2147.5" y="-909" width="95" height="30" as="geometry" />
        </mxCell>
        <mxCell id="tdu9kAknkN8920B2DEsd-390" value="&lt;div&gt;&lt;br&gt;&lt;/div&gt;&lt;div&gt;&lt;br&gt;&lt;/div&gt;" style="strokeWidth=1;shadow=0;align=center;html=1;shape=mxgraph.mockup.containers.window;align=left;verticalAlign=top;spacingLeft=8;strokeColor2=#008cff;strokeColor3=#c4c4c4;fontColor=#666666;mainText=;fontSize=17;labelBackgroundColor=none;fillColor=#3D3D3D;gradientDirection=north;sketch=0;" vertex="1" parent="tdu9kAknkN8920B2DEsd-275">
          <mxGeometry x="1520" y="181" width="390" height="890" as="geometry" />
        </mxCell>
        <mxCell id="tdu9kAknkN8920B2DEsd-391" value="" style="strokeWidth=1;shadow=0;dashed=0;align=center;html=1;shape=mxgraph.mockup.graphics.rrect;rSize=0;sketch=0;fillColor=#2B2B2B;gradientColor=none;strokeColor=#212121;" vertex="1" parent="tdu9kAknkN8920B2DEsd-275">
          <mxGeometry x="1545" y="681" width="340" height="370" as="geometry" />
        </mxCell>
        <mxCell id="tdu9kAknkN8920B2DEsd-392" value="#" style="strokeColor=inherit;fillColor=inherit;gradientColor=inherit;strokeWidth=1;shadow=0;dashed=0;align=center;html=1;shape=mxgraph.mockup.graphics.rrect;rSize=0;fontColor=#666666;" vertex="1" parent="tdu9kAknkN8920B2DEsd-391">
          <mxGeometry width="20" height="49.33" as="geometry" />
        </mxCell>
        <mxCell id="tdu9kAknkN8920B2DEsd-393" value="20//10//2014" style="strokeColor=inherit;fillColor=inherit;gradientColor=inherit;strokeWidth=1;shadow=0;dashed=0;align=center;html=1;shape=mxgraph.mockup.graphics.rrect;rSize=0;fontColor=#666666;" vertex="1" parent="tdu9kAknkN8920B2DEsd-391">
          <mxGeometry x="136" width="119" height="24.66666666666667" as="geometry" />
        </mxCell>
        <mxCell id="tdu9kAknkN8920B2DEsd-394" value="27//10//2014" style="strokeColor=inherit;fillColor=inherit;gradientColor=inherit;strokeWidth=1;shadow=0;dashed=0;align=center;html=1;shape=mxgraph.mockup.graphics.rrect;rSize=0;fontColor=#666666;" vertex="1" parent="tdu9kAknkN8920B2DEsd-391">
          <mxGeometry x="255" width="85" height="24.66666666666667" as="geometry" />
        </mxCell>
        <mxCell id="tdu9kAknkN8920B2DEsd-395" value="M" style="strokeColor=inherit;fillColor=inherit;gradientColor=inherit;strokeWidth=1;shadow=0;dashed=0;align=center;html=1;shape=mxgraph.mockup.graphics.rrect;rSize=0;;fontColor=#666666;" vertex="1" parent="tdu9kAknkN8920B2DEsd-391">
          <mxGeometry x="136" y="24.66666666666667" width="17" height="24.66666666666667" as="geometry" />
        </mxCell>
        <mxCell id="tdu9kAknkN8920B2DEsd-396" value="T" style="strokeColor=inherit;fillColor=inherit;gradientColor=inherit;strokeWidth=1;shadow=0;dashed=0;align=center;html=1;shape=mxgraph.mockup.graphics.rrect;rSize=0;fontColor=#666666;" vertex="1" parent="tdu9kAknkN8920B2DEsd-391">
          <mxGeometry x="153" y="24.66666666666667" width="17" height="24.66666666666667" as="geometry" />
        </mxCell>
        <mxCell id="tdu9kAknkN8920B2DEsd-397" value="W" style="strokeColor=inherit;fillColor=inherit;gradientColor=inherit;strokeWidth=1;shadow=0;dashed=0;align=center;html=1;shape=mxgraph.mockup.graphics.rrect;rSize=0;fontColor=#666666;" vertex="1" parent="tdu9kAknkN8920B2DEsd-391">
          <mxGeometry x="170" y="24.66666666666667" width="17" height="24.66666666666667" as="geometry" />
        </mxCell>
        <mxCell id="tdu9kAknkN8920B2DEsd-398" value="T" style="strokeColor=inherit;fillColor=inherit;gradientColor=inherit;strokeWidth=1;shadow=0;dashed=0;align=center;html=1;shape=mxgraph.mockup.graphics.rrect;rSize=0;fontColor=#666666;" vertex="1" parent="tdu9kAknkN8920B2DEsd-391">
          <mxGeometry x="186.99999999999997" y="24.66666666666667" width="17" height="24.66666666666667" as="geometry" />
        </mxCell>
        <mxCell id="tdu9kAknkN8920B2DEsd-399" value="F" style="strokeColor=inherit;fillColor=inherit;gradientColor=inherit;strokeWidth=1;shadow=0;dashed=0;align=center;html=1;shape=mxgraph.mockup.graphics.rrect;rSize=0;fontColor=#666666;" vertex="1" parent="tdu9kAknkN8920B2DEsd-391">
          <mxGeometry x="203.99999999999997" y="24.66666666666667" width="17" height="24.66666666666667" as="geometry" />
        </mxCell>
        <mxCell id="tdu9kAknkN8920B2DEsd-400" value="S" style="strokeColor=inherit;fillColor=inherit;gradientColor=inherit;strokeWidth=1;shadow=0;dashed=0;align=center;html=1;shape=mxgraph.mockup.graphics.rrect;rSize=0;fontColor=#666666;" vertex="1" parent="tdu9kAknkN8920B2DEsd-391">
          <mxGeometry x="221" y="24.66666666666667" width="17" height="24.66666666666667" as="geometry" />
        </mxCell>
        <mxCell id="tdu9kAknkN8920B2DEsd-401" value="S" style="strokeColor=inherit;fillColor=inherit;gradientColor=inherit;strokeWidth=1;shadow=0;dashed=0;align=center;html=1;shape=mxgraph.mockup.graphics.rrect;rSize=0;fontColor=#666666;" vertex="1" parent="tdu9kAknkN8920B2DEsd-391">
          <mxGeometry x="238" y="24.66666666666667" width="17" height="24.66666666666667" as="geometry" />
        </mxCell>
        <mxCell id="tdu9kAknkN8920B2DEsd-402" value="M" style="strokeColor=inherit;fillColor=inherit;gradientColor=inherit;strokeWidth=1;shadow=0;dashed=0;align=center;html=1;shape=mxgraph.mockup.graphics.rrect;rSize=0;fontColor=#666666;" vertex="1" parent="tdu9kAknkN8920B2DEsd-391">
          <mxGeometry x="255" y="24.66666666666667" width="17" height="24.66666666666667" as="geometry" />
        </mxCell>
        <mxCell id="tdu9kAknkN8920B2DEsd-403" value="T" style="strokeColor=inherit;fillColor=inherit;gradientColor=inherit;strokeWidth=1;shadow=0;dashed=0;align=center;html=1;shape=mxgraph.mockup.graphics.rrect;rSize=0;fontColor=#666666;" vertex="1" parent="tdu9kAknkN8920B2DEsd-391">
          <mxGeometry x="272" y="24.66666666666667" width="17" height="24.66666666666667" as="geometry" />
        </mxCell>
        <mxCell id="tdu9kAknkN8920B2DEsd-404" value="W" style="strokeColor=inherit;fillColor=inherit;gradientColor=inherit;strokeWidth=1;shadow=0;dashed=0;align=center;html=1;shape=mxgraph.mockup.graphics.rrect;rSize=0;fontColor=#666666;" vertex="1" parent="tdu9kAknkN8920B2DEsd-391">
          <mxGeometry x="289" y="24.66666666666667" width="17" height="24.66666666666667" as="geometry" />
        </mxCell>
        <mxCell id="tdu9kAknkN8920B2DEsd-405" value="T" style="strokeColor=inherit;fillColor=inherit;gradientColor=inherit;strokeWidth=1;shadow=0;dashed=0;align=center;html=1;shape=mxgraph.mockup.graphics.rrect;rSize=0;fontColor=#666666;" vertex="1" parent="tdu9kAknkN8920B2DEsd-391">
          <mxGeometry x="306" y="24.66666666666667" width="17" height="24.66666666666667" as="geometry" />
        </mxCell>
        <mxCell id="tdu9kAknkN8920B2DEsd-406" value="F" style="strokeColor=inherit;fillColor=inherit;gradientColor=inherit;strokeWidth=1;shadow=0;dashed=0;align=center;html=1;shape=mxgraph.mockup.graphics.rrect;rSize=0;fontColor=#666666;" vertex="1" parent="tdu9kAknkN8920B2DEsd-391">
          <mxGeometry x="323" y="24.66666666666667" width="17" height="24.66666666666667" as="geometry" />
        </mxCell>
        <mxCell id="tdu9kAknkN8920B2DEsd-407" value="" style="strokeColor=inherit;fillColor=inherit;gradientColor=inherit;strokeWidth=1;shadow=0;dashed=0;align=center;html=1;shape=mxgraph.mockup.graphics.rrect;rSize=0;fontColor=#666666;" vertex="1" parent="tdu9kAknkN8920B2DEsd-391">
          <mxGeometry y="49.33333333333334" width="136" height="320.66666666666674" as="geometry" />
        </mxCell>
        <mxCell id="tdu9kAknkN8920B2DEsd-408" value="" style="strokeColor=inherit;fillColor=inherit;gradientColor=inherit;strokeWidth=1;shadow=0;dashed=0;align=center;html=1;shape=mxgraph.mockup.graphics.rrect;rSize=0;fontColor=#666666;" vertex="1" parent="tdu9kAknkN8920B2DEsd-391">
          <mxGeometry x="136" y="49.33333333333334" width="34" height="320.66666666666674" as="geometry" />
        </mxCell>
        <mxCell id="tdu9kAknkN8920B2DEsd-409" value="" style="strokeColor=inherit;fillColor=inherit;gradientColor=inherit;strokeWidth=1;shadow=0;dashed=0;align=center;html=1;shape=mxgraph.mockup.graphics.rrect;rSize=0;fontColor=#666666;" vertex="1" parent="tdu9kAknkN8920B2DEsd-391">
          <mxGeometry x="170" y="49.33333333333334" width="34" height="320.66666666666674" as="geometry" />
        </mxCell>
        <mxCell id="tdu9kAknkN8920B2DEsd-410" value="" style="strokeColor=inherit;fillColor=inherit;gradientColor=inherit;strokeWidth=1;shadow=0;dashed=0;align=center;html=1;shape=mxgraph.mockup.graphics.rrect;rSize=0;fontColor=#666666;" vertex="1" parent="tdu9kAknkN8920B2DEsd-391">
          <mxGeometry x="203.99999999999997" y="49.33333333333334" width="34" height="320.66666666666674" as="geometry" />
        </mxCell>
        <mxCell id="tdu9kAknkN8920B2DEsd-411" value="" style="strokeColor=inherit;fillColor=inherit;gradientColor=inherit;strokeWidth=1;shadow=0;dashed=0;align=center;html=1;shape=mxgraph.mockup.graphics.rrect;rSize=0;fontColor=#666666;" vertex="1" parent="tdu9kAknkN8920B2DEsd-391">
          <mxGeometry x="238" y="49.33333333333334" width="34" height="320.66666666666674" as="geometry" />
        </mxCell>
        <mxCell id="tdu9kAknkN8920B2DEsd-412" value="" style="strokeColor=inherit;fillColor=inherit;gradientColor=inherit;strokeWidth=1;shadow=0;dashed=0;align=center;html=1;shape=mxgraph.mockup.graphics.rrect;rSize=0;fontColor=#666666;" vertex="1" parent="tdu9kAknkN8920B2DEsd-391">
          <mxGeometry x="272" y="49.33333333333334" width="34" height="320.66666666666674" as="geometry" />
        </mxCell>
        <mxCell id="tdu9kAknkN8920B2DEsd-413" value="" style="strokeColor=inherit;fillColor=inherit;gradientColor=inherit;strokeWidth=1;shadow=0;dashed=0;align=center;html=1;shape=mxgraph.mockup.graphics.rrect;rSize=0;fontColor=#666666;" vertex="1" parent="tdu9kAknkN8920B2DEsd-391">
          <mxGeometry x="306" y="49.33333333333334" width="34" height="320.66666666666674" as="geometry" />
        </mxCell>
        <mxCell id="tdu9kAknkN8920B2DEsd-414" value="1" style="strokeWidth=1;shadow=0;dashed=0;align=center;html=1;shape=mxgraph.mockup.graphics.anchor;fontColor=#666666;" vertex="1" parent="tdu9kAknkN8920B2DEsd-391">
          <mxGeometry y="49.33333333333334" width="11.333333333333332" height="24.66666666666667" as="geometry" />
        </mxCell>
        <mxCell id="tdu9kAknkN8920B2DEsd-415" value="20//10//2014 8:00 AM" style="strokeWidth=1;shadow=0;dashed=0;align=center;html=1;shape=mxgraph.mockup.graphics.anchor;fontColor=#666666;" vertex="1" parent="tdu9kAknkN8920B2DEsd-391">
          <mxGeometry x="34" y="49.33333333333334" width="73.66666666666667" height="24.66666666666667" as="geometry" />
        </mxCell>
        <mxCell id="tdu9kAknkN8920B2DEsd-416" value="2" style="strokeWidth=1;shadow=0;dashed=0;align=center;html=1;shape=mxgraph.mockup.graphics.anchor;fontColor=#666666;" vertex="1" parent="tdu9kAknkN8920B2DEsd-391">
          <mxGeometry y="74" width="11.333333333333332" height="24.66666666666667" as="geometry" />
        </mxCell>
        <mxCell id="tdu9kAknkN8920B2DEsd-417" value="20//10//2014 8:00 AM" style="strokeWidth=1;shadow=0;dashed=0;align=center;html=1;shape=mxgraph.mockup.graphics.anchor;fontColor=#666666;" vertex="1" parent="tdu9kAknkN8920B2DEsd-391">
          <mxGeometry x="34" y="74" width="73.66666666666667" height="24.66666666666667" as="geometry" />
        </mxCell>
        <mxCell id="tdu9kAknkN8920B2DEsd-418" value="3" style="strokeWidth=1;shadow=0;dashed=0;align=center;html=1;shape=mxgraph.mockup.graphics.anchor;fontColor=#666666;" vertex="1" parent="tdu9kAknkN8920B2DEsd-391">
          <mxGeometry y="98.66666666666669" width="11.333333333333332" height="24.66666666666667" as="geometry" />
        </mxCell>
        <mxCell id="tdu9kAknkN8920B2DEsd-419" value="20//10//2014 8:00 AM" style="strokeWidth=1;shadow=0;dashed=0;align=center;html=1;shape=mxgraph.mockup.graphics.anchor;fontColor=#666666;" vertex="1" parent="tdu9kAknkN8920B2DEsd-391">
          <mxGeometry x="34" y="98.66666666666669" width="73.66666666666667" height="24.66666666666667" as="geometry" />
        </mxCell>
        <mxCell id="tdu9kAknkN8920B2DEsd-420" value="" style="strokeWidth=1;shadow=0;dashed=0;align=center;html=1;shape=mxgraph.mockup.graphics.anchor;fontColor=#666666;" vertex="1" parent="tdu9kAknkN8920B2DEsd-391">
          <mxGeometry x="107.66666666666666" y="98.66666666666669" width="28.333333333333332" height="24.66666666666667" as="geometry" />
        </mxCell>
        <mxCell id="tdu9kAknkN8920B2DEsd-421" value="4" style="strokeWidth=1;shadow=0;dashed=0;align=center;html=1;shape=mxgraph.mockup.graphics.anchor;fontColor=#666666;" vertex="1" parent="tdu9kAknkN8920B2DEsd-391">
          <mxGeometry y="123.33333333333336" width="11.333333333333332" height="24.66666666666667" as="geometry" />
        </mxCell>
        <mxCell id="tdu9kAknkN8920B2DEsd-422" value="20//10//2014 8:00 AM" style="strokeWidth=1;shadow=0;dashed=0;align=center;html=1;shape=mxgraph.mockup.graphics.anchor;fontColor=#666666;" vertex="1" parent="tdu9kAknkN8920B2DEsd-391">
          <mxGeometry x="34" y="123.33333333333336" width="73.66666666666667" height="24.66666666666667" as="geometry" />
        </mxCell>
        <mxCell id="tdu9kAknkN8920B2DEsd-423" value="" style="strokeWidth=1;shadow=0;dashed=0;align=center;html=1;shape=mxgraph.mockup.graphics.rrect;rSize=0;strokeColor=none;fillColor=#aaddff;" vertex="1" parent="tdu9kAknkN8920B2DEsd-391">
          <mxGeometry x="141.66666666666666" y="55.50000000000001" width="73.66666666666667" height="12.333333333333336" as="geometry" />
        </mxCell>
        <mxCell id="tdu9kAknkN8920B2DEsd-424" value="" style="strokeWidth=1;shadow=0;dashed=0;align=center;html=1;shape=mxgraph.mockup.graphics.rrect;rSize=0;strokeColor=none;fillColor=#aaddff;" vertex="1" parent="tdu9kAknkN8920B2DEsd-391">
          <mxGeometry x="141.66666666666666" y="80.16666666666669" width="22.666666666666664" height="12.333333333333336" as="geometry" />
        </mxCell>
        <mxCell id="tdu9kAknkN8920B2DEsd-425" value="" style="strokeWidth=1;shadow=0;dashed=0;align=center;html=1;shape=mxgraph.mockup.graphics.rrect;rSize=0;strokeColor=none;fillColor=#aaddff;" vertex="1" parent="tdu9kAknkN8920B2DEsd-391">
          <mxGeometry x="158.66666666666666" y="104.83333333333336" width="56.666666666666664" height="12.333333333333336" as="geometry" />
        </mxCell>
        <mxCell id="tdu9kAknkN8920B2DEsd-426" value="" style="strokeWidth=1;shadow=0;dashed=0;align=center;html=1;shape=mxgraph.mockup.graphics.rrect;rSize=0;strokeColor=none;fillColor=#aaddff;" vertex="1" parent="tdu9kAknkN8920B2DEsd-391">
          <mxGeometry x="192.66666666666663" y="129.50000000000003" width="39.666666666666664" height="12.333333333333336" as="geometry" />
        </mxCell>
        <mxCell id="tdu9kAknkN8920B2DEsd-427" value="Ranking" style="text;strokeColor=none;fillColor=none;html=1;fontSize=24;fontStyle=1;verticalAlign=middle;align=center;shadow=0;sketch=0;" vertex="1" parent="tdu9kAknkN8920B2DEsd-275">
          <mxGeometry x="1667.5" y="641" width="95" height="30" as="geometry" />
        </mxCell>
        <mxCell id="tdu9kAknkN8920B2DEsd-428" value="Welcome: Usuario!" style="text;strokeColor=none;fillColor=none;html=1;fontSize=24;fontStyle=1;verticalAlign=middle;align=center;shadow=0;sketch=0;" vertex="1" parent="tdu9kAknkN8920B2DEsd-275">
          <mxGeometry x="1667.5" y="221" width="95" height="30" as="geometry" />
        </mxCell>
        <mxCell id="tdu9kAknkN8920B2DEsd-429" value="" style="strokeWidth=1;shadow=0;dashed=0;align=center;html=1;shape=mxgraph.mockup.forms.rrect;rSize=0;sketch=0;strokeColor=#212121;fillColor=#2B2B2B;" vertex="1" parent="tdu9kAknkN8920B2DEsd-275">
          <mxGeometry x="1545" y="261" width="340" height="380" as="geometry" />
        </mxCell>
        <mxCell id="tdu9kAknkN8920B2DEsd-430" value="Points available: 1000000000" style="strokeWidth=1;shadow=0;dashed=0;align=center;html=1;shape=mxgraph.mockup.forms.anchor;fontSize=12;fontColor=#666666;align=left;resizeWidth=1;spacingLeft=0;" vertex="1" parent="tdu9kAknkN8920B2DEsd-429">
          <mxGeometry width="170" height="20" relative="1" as="geometry">
            <mxPoint x="10" y="40" as="offset" />
          </mxGeometry>
        </mxCell>
        <mxCell id="tdu9kAknkN8920B2DEsd-431" value="" style="strokeWidth=1;shadow=0;dashed=0;align=center;html=1;shape=mxgraph.mockup.forms.anchor;fontSize=12;fontColor=#666666;align=left;spacingLeft=0;resizeWidth=1;" vertex="1" parent="tdu9kAknkN8920B2DEsd-429">
          <mxGeometry y="1" width="255" height="20" relative="1" as="geometry">
            <mxPoint x="10" y="-75" as="offset" />
          </mxGeometry>
        </mxCell>
        <mxCell id="tdu9kAknkN8920B2DEsd-432" value="" style="shape=line;strokeColor=#ddeeff;strokeWidth=2;html=1;resizeWidth=1;" vertex="1" parent="tdu9kAknkN8920B2DEsd-429">
          <mxGeometry x="10" y="150" width="320" height="10" as="geometry" />
        </mxCell>
        <mxCell id="tdu9kAknkN8920B2DEsd-433" value="" style="verticalLabelPosition=bottom;shadow=0;dashed=0;align=center;html=1;verticalAlign=top;strokeWidth=1;shape=mxgraph.mockup.containers.userMale;strokeColor=#666666;strokeColor2=#008cff;sketch=0;fillColor=#212121;gradientColor=none;fontSize=19;fontColor=#1C1C1C;" vertex="1" parent="tdu9kAknkN8920B2DEsd-429">
          <mxGeometry x="230" y="10" width="100" height="100" as="geometry" />
        </mxCell>
        <mxCell id="tdu9kAknkN8920B2DEsd-434" value="Username:" style="strokeWidth=1;shadow=0;dashed=0;align=center;html=1;shape=mxgraph.mockup.forms.anchor;fontSize=12;fontColor=#666666;align=left;resizeWidth=1;spacingLeft=0;" vertex="1" parent="tdu9kAknkN8920B2DEsd-429">
          <mxGeometry x="10" y="10" width="170" height="20" as="geometry" />
        </mxCell>
        <mxCell id="tdu9kAknkN8920B2DEsd-435" value="Country: ES" style="strokeWidth=1;shadow=0;dashed=0;align=center;html=1;shape=mxgraph.mockup.forms.anchor;fontSize=12;fontColor=#666666;align=left;resizeWidth=1;spacingLeft=0;" vertex="1" parent="tdu9kAknkN8920B2DEsd-429">
          <mxGeometry x="10" y="70" width="170" height="20" as="geometry" />
        </mxCell>
        <mxCell id="tdu9kAknkN8920B2DEsd-436" value="Level: Rookie" style="strokeWidth=1;shadow=0;dashed=0;align=center;html=1;shape=mxgraph.mockup.forms.anchor;fontSize=12;fontColor=#666666;align=left;resizeWidth=1;spacingLeft=0;" vertex="1" parent="tdu9kAknkN8920B2DEsd-429">
          <mxGeometry x="230" y="120" width="170" height="20" as="geometry" />
        </mxCell>
        <mxCell id="tdu9kAknkN8920B2DEsd-437" value="Messages: 0" style="strokeWidth=1;shadow=0;dashed=0;align=center;html=1;shape=mxgraph.mockup.forms.anchor;fontSize=12;fontColor=#666666;align=left;resizeWidth=1;spacingLeft=0;" vertex="1" parent="tdu9kAknkN8920B2DEsd-429">
          <mxGeometry x="15" y="120" width="170" height="20" as="geometry" />
        </mxCell>
        <mxCell id="tdu9kAknkN8920B2DEsd-438" value="" style="pointerEvents=1;shadow=0;dashed=0;html=1;strokeColor=none;fillColor=#505050;labelPosition=center;verticalLabelPosition=bottom;verticalAlign=top;outlineConnect=0;align=center;shape=mxgraph.office.concepts.settings_office_365;sketch=0;fontSize=19;fontColor=#1C1C1C;" vertex="1" parent="tdu9kAknkN8920B2DEsd-429">
          <mxGeometry x="310" y="10" width="20" height="20" as="geometry" />
        </mxCell>
        <mxCell id="tdu9kAknkN8920B2DEsd-439" value="&lt;div align=&quot;left&quot;&gt;&lt;br&gt;&lt;/div&gt;" style="strokeWidth=1;shadow=0;dashed=0;align=left;html=1;shape=mxgraph.mockup.forms.anchor;fontSize=12;fontColor=#666666;align=left;resizeWidth=1;spacingLeft=0;" vertex="1" parent="tdu9kAknkN8920B2DEsd-429">
          <mxGeometry x="75" y="300" width="25" height="80" as="geometry" />
        </mxCell>
        <mxCell id="tdu9kAknkN8920B2DEsd-440" value="&lt;div&gt;LAST MATCHES:&lt;/div&gt;&lt;div&gt;&lt;ul&gt;&lt;li&gt;123423421312321&lt;br&gt;&lt;/li&gt;&lt;li&gt;A&lt;/li&gt;&lt;li&gt;A&lt;/li&gt;&lt;li&gt;A&lt;/li&gt;&lt;li&gt;A&lt;/li&gt;&lt;li&gt;A&lt;/li&gt;&lt;li&gt;A&lt;/li&gt;&lt;li&gt;A&lt;/li&gt;&lt;li&gt;A&lt;/li&gt;&lt;li&gt;A&lt;br&gt;&lt;/li&gt;&lt;/ul&gt;&lt;/div&gt;" style="strokeWidth=1;shadow=0;dashed=0;align=center;html=1;shape=mxgraph.mockup.forms.anchor;fontSize=12;fontColor=#666666;align=left;resizeWidth=1;spacingLeft=0;" vertex="1" parent="tdu9kAknkN8920B2DEsd-429">
          <mxGeometry x="85" y="200" width="170" height="150" as="geometry" />
        </mxCell>
        <mxCell id="tdu9kAknkN8920B2DEsd-344" value="&lt;div style=&quot;font-size: 21px&quot; align=&quot;left&quot;&gt;&lt;font style=&quot;font-size: 21px&quot;&gt;En la pagina de inicio, la seccion de la derecha se puede colisionar, &lt;br&gt;&lt;/font&gt;&lt;/div&gt;&lt;div style=&quot;font-size: 21px&quot; align=&quot;left&quot;&gt;&lt;font style=&quot;font-size: 21px&quot;&gt;es decir, se baraja la posibilidad de tenerla cerrada o abierta en cualquier momento y dejando &lt;br&gt;&lt;/font&gt;&lt;/div&gt;&lt;div style=&quot;font-size: 21px&quot; align=&quot;left&quot;&gt;&lt;font style=&quot;font-size: 21px&quot;&gt;posibilidad al juego de utilizar mas partede la pantalla cuando este se colapse&lt;/font&gt;&lt;br&gt;&lt;/div&gt;" style="shape=note;strokeWidth=2;fontSize=14;size=20;whiteSpace=wrap;html=1;fillColor=#fff2cc;strokeColor=#d6b656;fontColor=#666600;shadow=0;sketch=0;" vertex="1" parent="1">
          <mxGeometry x="2000" y="40" width="900" height="140" as="geometry" />
        </mxCell>
        <mxCell id="tdu9kAknkN8920B2DEsd-345" value="&lt;div style=&quot;font-size: 18px&quot; align=&quot;left&quot;&gt;&lt;font style=&quot;font-size: 18px&quot;&gt;Cosas del diseno general a tener en cuenta:&lt;/font&gt;&lt;/div&gt;&lt;div style=&quot;font-size: 18px&quot; align=&quot;left&quot;&gt;&lt;ul&gt;&lt;li&gt;&lt;font style=&quot;font-size: 18px&quot;&gt;Boton para poner en pantalla completa cuando estes dentro del juego&lt;br&gt;&lt;/font&gt;&lt;/li&gt;&lt;li&gt;&lt;font style=&quot;font-size: 18px&quot;&gt;Boton para silenciar el sonido de la pagina web&lt;/font&gt;&lt;/li&gt;&lt;li&gt;&lt;font style=&quot;font-size: 18px&quot;&gt;Contiene ranking con puntos de la web&lt;/font&gt;&lt;/li&gt;&lt;li&gt;&lt;font style=&quot;font-size: 18px&quot;&gt;Usuario aparece al logearse dentro de la misma ventana etc&lt;/font&gt;&lt;/li&gt;&lt;li&gt;&lt;font style=&quot;font-size: 18px&quot;&gt;Video y slides sobre el juego con capturas y un gif en movimiento o algo por el estilo&lt;/font&gt;&lt;/li&gt;&lt;li&gt;&lt;font style=&quot;font-size: 18px&quot;&gt;Botones de nav con apartados de about y una guia de como jugar a los juegos&lt;/font&gt;&lt;/li&gt;&lt;li&gt;&lt;font style=&quot;font-size: 18px&quot;&gt;Descripcion breve de cada juego al hacer hoover por encima de los botones de estos tal como se indica en la nota&lt;/font&gt;&lt;/li&gt;&lt;li&gt;&lt;font style=&quot;font-size: 18px&quot;&gt;&lt;br&gt;&lt;/font&gt;&lt;/li&gt;&lt;/ul&gt;&lt;/div&gt;" style="shape=note;strokeWidth=2;fontSize=14;size=20;whiteSpace=wrap;html=1;fillColor=#fff2cc;strokeColor=#d6b656;fontColor=#666600;shadow=0;sketch=0;align=left;" vertex="1" parent="1">
          <mxGeometry x="2461" y="200" width="439" height="380" as="geometry" />
        </mxCell>
        <mxCell id="tdu9kAknkN8920B2DEsd-364" value="" style="strokeWidth=1;shadow=0;dashed=0;align=center;html=1;shape=mxgraph.mockup.forms.rrect;rSize=0;sketch=0;strokeColor=#212121;fillColor=#2B2B2B;" vertex="1" parent="1">
          <mxGeometry x="2065" y="300" width="340" height="370" as="geometry" />
        </mxCell>
        <mxCell id="tdu9kAknkN8920B2DEsd-368" value="Points available: 1000000000" style="strokeWidth=1;shadow=0;dashed=0;align=center;html=1;shape=mxgraph.mockup.forms.anchor;fontSize=12;fontColor=#666666;align=left;resizeWidth=1;spacingLeft=0;" vertex="1" parent="tdu9kAknkN8920B2DEsd-364">
          <mxGeometry width="170" height="20" relative="1" as="geometry">
            <mxPoint x="10" y="40" as="offset" />
          </mxGeometry>
        </mxCell>
        <mxCell id="tdu9kAknkN8920B2DEsd-372" value="" style="strokeWidth=1;shadow=0;dashed=0;align=center;html=1;shape=mxgraph.mockup.forms.anchor;fontSize=12;fontColor=#666666;align=left;spacingLeft=0;resizeWidth=1;" vertex="1" parent="tdu9kAknkN8920B2DEsd-364">
          <mxGeometry y="1" width="255" height="20" relative="1" as="geometry">
            <mxPoint x="10" y="-75" as="offset" />
          </mxGeometry>
        </mxCell>
        <mxCell id="tdu9kAknkN8920B2DEsd-375" value="" style="shape=line;strokeColor=#ddeeff;strokeWidth=2;html=1;resizeWidth=1;" vertex="1" parent="tdu9kAknkN8920B2DEsd-364">
          <mxGeometry x="10" y="146.05263157894737" width="320" height="9.736842105263158" as="geometry" />
        </mxCell>
        <mxCell id="tdu9kAknkN8920B2DEsd-376" value="" style="verticalLabelPosition=bottom;shadow=0;dashed=0;align=center;html=1;verticalAlign=top;strokeWidth=1;shape=mxgraph.mockup.containers.userMale;strokeColor2=#008cff;sketch=0;fontSize=19;strokeColor=#36393d;gradientColor=#ffffff;fillColor=#1C1C1C;" vertex="1" parent="tdu9kAknkN8920B2DEsd-364">
          <mxGeometry x="230" y="9.736842105263158" width="100" height="97.36842105263158" as="geometry" />
        </mxCell>
        <mxCell id="tdu9kAknkN8920B2DEsd-377" value="Username:" style="strokeWidth=1;shadow=0;dashed=0;align=center;html=1;shape=mxgraph.mockup.forms.anchor;fontSize=12;fontColor=#666666;align=left;resizeWidth=1;spacingLeft=0;" vertex="1" parent="tdu9kAknkN8920B2DEsd-364">
          <mxGeometry x="10" y="9.736842105263158" width="170" height="19.473684210526315" as="geometry" />
        </mxCell>
        <mxCell id="tdu9kAknkN8920B2DEsd-378" value="Country: ES" style="strokeWidth=1;shadow=0;dashed=0;align=center;html=1;shape=mxgraph.mockup.forms.anchor;fontSize=12;fontColor=#666666;align=left;resizeWidth=1;spacingLeft=0;" vertex="1" parent="tdu9kAknkN8920B2DEsd-364">
          <mxGeometry x="10" y="68.15789473684211" width="170" height="19.473684210526315" as="geometry" />
        </mxCell>
        <mxCell id="tdu9kAknkN8920B2DEsd-379" value="Level: Rookie" style="strokeWidth=1;shadow=0;dashed=0;align=center;html=1;shape=mxgraph.mockup.forms.anchor;fontSize=12;fontColor=#666666;align=left;resizeWidth=1;spacingLeft=0;" vertex="1" parent="tdu9kAknkN8920B2DEsd-364">
          <mxGeometry x="230" y="116.8421052631579" width="170" height="19.473684210526315" as="geometry" />
        </mxCell>
        <mxCell id="tdu9kAknkN8920B2DEsd-383" value="Messages: 0" style="strokeWidth=1;shadow=0;dashed=0;align=center;html=1;shape=mxgraph.mockup.forms.anchor;fontSize=12;fontColor=#666666;align=left;resizeWidth=1;spacingLeft=0;" vertex="1" parent="tdu9kAknkN8920B2DEsd-364">
          <mxGeometry x="10" y="116.8421052631579" width="170" height="19.473684210526315" as="geometry" />
        </mxCell>
        <mxCell id="tdu9kAknkN8920B2DEsd-384" value="" style="pointerEvents=1;shadow=0;dashed=0;html=1;strokeColor=none;fillColor=#505050;labelPosition=center;verticalLabelPosition=bottom;verticalAlign=top;outlineConnect=0;align=center;shape=mxgraph.office.concepts.settings_office_365;sketch=0;fontSize=19;fontColor=#1C1C1C;" vertex="1" parent="tdu9kAknkN8920B2DEsd-364">
          <mxGeometry x="310" y="9.736842105263158" width="20" height="19.473684210526315" as="geometry" />
        </mxCell>
        <mxCell id="tdu9kAknkN8920B2DEsd-387" value="&lt;div align=&quot;left&quot;&gt;&lt;br&gt;&lt;/div&gt;" style="strokeWidth=1;shadow=0;dashed=0;align=left;html=1;shape=mxgraph.mockup.forms.anchor;fontSize=12;fontColor=#666666;align=left;resizeWidth=1;spacingLeft=0;" vertex="1" parent="tdu9kAknkN8920B2DEsd-364">
          <mxGeometry x="75" y="292.10526315789474" width="25" height="77.89473684210526" as="geometry" />
        </mxCell>
        <mxCell id="tdu9kAknkN8920B2DEsd-388" value="&lt;div&gt;LAST MATCHES:&lt;/div&gt;&lt;div&gt;&lt;ul&gt;&lt;li&gt;123423421312321123423421312321&lt;/li&gt;&lt;li&gt;123423421312321123423421312321&lt;/li&gt;&lt;li&gt;123423421312321123423421312321&lt;/li&gt;&lt;li&gt;123423421312321123423421312321&lt;/li&gt;&lt;li&gt;123423421312321123423421312321&lt;/li&gt;&lt;li&gt;123423421312321123423421312321&lt;/li&gt;&lt;li&gt;123423421312321123423421312321&lt;/li&gt;&lt;li&gt;123423421312321123423421312321&lt;/li&gt;&lt;/ul&gt;&lt;/div&gt;" style="strokeWidth=1;shadow=0;dashed=0;align=center;html=1;shape=mxgraph.mockup.forms.anchor;fontSize=12;fontColor=#666666;align=left;resizeWidth=1;spacingLeft=0;" vertex="1" parent="tdu9kAknkN8920B2DEsd-364">
          <mxGeometry x="10" y="163.95" width="280" height="166.05" as="geometry" />
        </mxCell>
        <mxCell id="tdu9kAknkN8920B2DEsd-441" value="LOG OUT" style="strokeWidth=1;shadow=0;dashed=0;align=center;html=1;shape=mxgraph.mockup.forms.rrect;rSize=5;strokeColor=#b85450;fillColor=#f8cecc;fontSize=16;fontStyle=1;" vertex="1" parent="tdu9kAknkN8920B2DEsd-364">
          <mxGeometry x="250" y="329.9957894736842" width="80" height="29.210526315789476" as="geometry" />
        </mxCell>
        <mxCell id="tdu9kAknkN8920B2DEsd-201" value="&lt;div&gt;Los campos saltan&lt;/div&gt;&lt;div&gt;en rojo si intentas&lt;/div&gt;&lt;div&gt;clickar en alguno&lt;/div&gt;&lt;div&gt;de los juegos sin&lt;/div&gt;&lt;div&gt;tener sesion &lt;br&gt;&lt;/div&gt;&lt;div&gt;iniciada&lt;br&gt;&lt;/div&gt;" style="strokeWidth=1;shadow=0;dashed=0;align=center;html=1;shape=mxgraph.mockup.text.stickyNote2;fontColor=#666666;mainText=;fontSize=17;whiteSpace=wrap;fillColor=#ffffcc;strokeColor=#F62E00;sketch=0;rotation=-10;" vertex="1" parent="1">
          <mxGeometry x="1865" y="370" width="200" height="190" as="geometry" />
        </mxCell>
        <mxCell id="tdu9kAknkN8920B2DEsd-386" value="" style="html=1;shadow=0;dashed=0;align=center;verticalAlign=middle;shape=mxgraph.arrows2.arrow;dy=0.6;dx=40;notch=0;sketch=0;strokeColor=#000000;strokeWidth=1;gradientColor=none;fontSize=19;labelBackgroundColor=#ffffff;fontColor=#FFFFFF;fillColor=#FFFFFF;" vertex="1" parent="1">
          <mxGeometry x="1905" y="610" width="162.5" height="80" as="geometry" />
        </mxCell>
      </root>
    </mxGraphModel>
  </diagram>
</mxfile>
